<svg xmlns="http://www.w3.org/2000/svg" width="720" height="720" viewBox="0 0 720 720">
<defs>
<style>text{font-family:ui-sans-serif,system-ui,-apple-system,Segoe UI,Roboto,Helvetica,Arial;fill:#111827}.muted{fill:#6b7280}.grid{fill:none;stroke:#e5e7eb;stroke-width:2}.axis{stroke:#d1d5db;stroke-width:2}.value{fill:rgba(37,99,235,0.20);stroke:#2563eb;stroke-width:3}</style>
</defs>
<rect x="0" y="0" width="100%" height="100%" fill="white"/>
<text x="360.00" y="48" text-anchor="middle" font-size="22" font-weight="700">Skill Radar</text>
<text x="360.00" y="72" text-anchor="middle" class="muted" font-size="14">0–5</text>
<polygon class="grid" points="360.00,306.00 406.77,333.00 406.77,387.00 360.00,414.00 313.23,387.00 313.23,333.00"/>
<polygon class="grid" points="360.00,252.00 453.53,306.00 453.53,414.00 360.00,468.00 266.47,414.00 266.47,306.00"/>
<polygon class="grid" points="360.00,198.00 500.30,279.00 500.30,441.00 360.00,522.00 219.70,441.00 219.70,279.00"/>
<polygon class="grid" points="360.00,144.00 547.06,252.00 547.06,468.00 360.00,576.00 172.94,468.00 172.94,252.00"/>
<polygon class="grid" points="360.00,90.00 593.83,225.00 593.83,495.00 360.00,630.00 126.17,495.00 126.17,225.00"/>
<line class="axis" x1="360.00" y1="360.00" x2="360.00" y2="90.00"/>
<line class="axis" x1="360.00" y1="360.00" x2="593.83" y2="225.00"/>
<line class="axis" x1="360.00" y1="360.00" x2="593.83" y2="495.00"/>
<line class="axis" x1="360.00" y1="360.00" x2="360.00" y2="630.00"/>
<line class="axis" x1="360.00" y1="360.00" x2="126.17" y2="495.00"/>
<line class="axis" x1="360.00" y1="360.00" x2="126.17" y2="225.00"/>
<polygon class="value" points="360.00,144.00 500.30,279.00 500.30,441.00 360.00,522.00 172.94,468.00 266.47,306.00"/>
<text x="360.00" y="64.00" text-anchor="middle" font-size="16" font-weight="600">Backend</text>
<text x="616.34" y="212.00" text-anchor="start" font-size="16" font-weight="600">Frontend</text>
<text x="616.34" y="508.00" text-anchor="start" font-size="16" font-weight="600">DevOps</text>
<text x="360.00" y="656.00" text-anchor="middle" font-size="16" font-weight="600">Testing</text>
<text x="103.66" y="508.00" text-anchor="end" font-size="16" font-weight="600">Architecture</text>
<text x="103.66" y="212.00" text-anchor="end" font-size="16" font-weight="600">Data</text>
</svg>
