<svg xmlns="http://www.w3.org/2000/svg" width="720" height="720" viewBox="0 0 720 720">
<defs>
<style>text{font-family:ui-sans-serif,system-ui,-apple-system,Segoe UI,Roboto,Helvetica,Arial;fill:#111827}.muted{fill:#6b7280}.grid{fill:none;stroke:#e5e7eb;stroke-width:2}.axis{stroke:#d1d5db;stroke-width:2}.value{fill:rgba(37,99,235,0.20);stroke:#2563eb;stroke-width:3}</style>
</defs>
<rect x="0" y="0" width="100%" height="100%" fill="white"/>
<text x="360.00" y="48" text-anchor="middle" font-size="22" font-weight="700">Skill Radar | 技能雷達</text>
<text x="360.00" y="72" text-anchor="middle" class="muted" font-size="14">0–5</text>
<polygon class="grid" points="360.00,312.00 401.57,336.00 401.57,384.00 360.00,408.00 318.43,384.00 318.43,336.00"/>
<polygon class="grid" points="360.00,264.00 443.14,312.00 443.14,408.00 360.00,456.00 276.86,408.00 276.86,312.00"/>
<polygon class="grid" points="360.00,216.00 484.71,288.00 484.71,432.00 360.00,504.00 235.29,432.00 235.29,288.00"/>
<polygon class="grid" points="360.00,168.00 526.28,264.00 526.28,456.00 360.00,552.00 193.72,456.00 193.72,264.00"/>
<polygon class="grid" points="360.00,120.00 567.85,240.00 567.85,480.00 360.00,600.00 152.15,480.00 152.15,240.00"/>
<line class="axis" x1="360.00" y1="360.00" x2="360.00" y2="120.00"/>
<line class="axis" x1="360.00" y1="360.00" x2="567.85" y2="240.00"/>
<line class="axis" x1="360.00" y1="360.00" x2="567.85" y2="480.00"/>
<line class="axis" x1="360.00" y1="360.00" x2="360.00" y2="600.00"/>
<line class="axis" x1="360.00" y1="360.00" x2="152.15" y2="480.00"/>
<line class="axis" x1="360.00" y1="360.00" x2="152.15" y2="240.00"/>
<polygon class="value" points="360.00,168.00 484.71,288.00 484.71,432.00 360.00,504.00 193.72,456.00 276.86,312.00"/>
<text x="360.00" y="108.00" text-anchor="middle" font-size="14" font-weight="700">後端</text>
<text x="360.00" y="124.00" text-anchor="middle" class="muted" font-size="12" font-weight="600">Backend</text>
<text x="578.24" y="234.00" text-anchor="start" font-size="14" font-weight="700">前端</text>
<text x="578.24" y="250.00" text-anchor="start" class="muted" font-size="12" font-weight="600">Frontend</text>
<text x="578.24" y="486.00" text-anchor="start" font-size="14" font-weight="700">DevOps</text>
<text x="578.24" y="502.00" text-anchor="start" class="muted" font-size="12" font-weight="600">DevOps</text>
<text x="360.00" y="612.00" text-anchor="middle" font-size="14" font-weight="700">測試</text>
<text x="360.00" y="628.00" text-anchor="middle" class="muted" font-size="12" font-weight="600">Testing</text>
<text x="141.76" y="486.00" text-anchor="end" font-size="14" font-weight="700">架構</text>
<text x="141.76" y="502.00" text-anchor="end" class="muted" font-size="12" font-weight="600">Architecture</text>
<text x="141.76" y="234.00" text-anchor="end" font-size="14" font-weight="700">資料/分析</text>
<text x="141.76" y="250.00" text-anchor="end" class="muted" font-size="12" font-weight="600">Data</text>
</svg>
